<mxfile host="app.diagrams.net" modified="2024-03-29T19:22:44.805Z" agent="Mozilla/5.0 (Windows NT 10.0; Win64; x64) AppleWebKit/537.36 (KHTML, like Gecko) Chrome/123.0.0.0 Safari/537.36" etag="LYYG3SceerEwUEWjt_tT" version="24.0.7" type="github">
  <diagram id="C5RBs43oDa-KdzZeNtuy" name="Page-1">
    <mxGraphModel dx="1560" dy="806" grid="1" gridSize="10" guides="1" tooltips="1" connect="1" arrows="1" fold="1" page="1" pageScale="1" pageWidth="827" pageHeight="1169" math="0" shadow="0">
      <root>
        <mxCell id="WIyWlLk6GJQsqaUBKTNV-0" />
        <mxCell id="WIyWlLk6GJQsqaUBKTNV-1" parent="WIyWlLk6GJQsqaUBKTNV-0" />
        <mxCell id="n35DV_EB8kSFTlXDGDIX-2" style="edgeStyle=orthogonalEdgeStyle;rounded=0;orthogonalLoop=1;jettySize=auto;html=1;" edge="1" parent="WIyWlLk6GJQsqaUBKTNV-1" source="WIyWlLk6GJQsqaUBKTNV-3" target="n35DV_EB8kSFTlXDGDIX-1">
          <mxGeometry relative="1" as="geometry" />
        </mxCell>
        <mxCell id="WIyWlLk6GJQsqaUBKTNV-3" value="Старт" style="rounded=1;whiteSpace=wrap;html=1;fontSize=12;glass=0;strokeWidth=1;shadow=0;" parent="WIyWlLk6GJQsqaUBKTNV-1" vertex="1">
          <mxGeometry x="160" y="80" width="120" height="40" as="geometry" />
        </mxCell>
        <mxCell id="n35DV_EB8kSFTlXDGDIX-0" value="&lt;h1 style=&quot;margin-top: 0px;&quot;&gt;Панель Работадателя&lt;/h1&gt;" style="text;html=1;whiteSpace=wrap;overflow=hidden;rounded=0;" vertex="1" parent="WIyWlLk6GJQsqaUBKTNV-1">
          <mxGeometry x="647" y="10" width="180" height="120" as="geometry" />
        </mxCell>
        <mxCell id="n35DV_EB8kSFTlXDGDIX-6" style="edgeStyle=orthogonalEdgeStyle;rounded=0;orthogonalLoop=1;jettySize=auto;html=1;" edge="1" parent="WIyWlLk6GJQsqaUBKTNV-1" source="n35DV_EB8kSFTlXDGDIX-1" target="n35DV_EB8kSFTlXDGDIX-3">
          <mxGeometry relative="1" as="geometry" />
        </mxCell>
        <mxCell id="n35DV_EB8kSFTlXDGDIX-1" value="Ввод логина и пароля" style="rounded=0;whiteSpace=wrap;html=1;" vertex="1" parent="WIyWlLk6GJQsqaUBKTNV-1">
          <mxGeometry x="160" y="170" width="120" height="60" as="geometry" />
        </mxCell>
        <mxCell id="n35DV_EB8kSFTlXDGDIX-11" style="edgeStyle=orthogonalEdgeStyle;rounded=0;orthogonalLoop=1;jettySize=auto;html=1;" edge="1" parent="WIyWlLk6GJQsqaUBKTNV-1" source="n35DV_EB8kSFTlXDGDIX-3" target="n35DV_EB8kSFTlXDGDIX-10">
          <mxGeometry relative="1" as="geometry" />
        </mxCell>
        <mxCell id="n35DV_EB8kSFTlXDGDIX-12" value="Да" style="edgeLabel;html=1;align=center;verticalAlign=middle;resizable=0;points=[];" vertex="1" connectable="0" parent="n35DV_EB8kSFTlXDGDIX-11">
          <mxGeometry x="-0.0555" y="2" relative="1" as="geometry">
            <mxPoint as="offset" />
          </mxGeometry>
        </mxCell>
        <mxCell id="n35DV_EB8kSFTlXDGDIX-3" value="Данные верны?" style="rhombus;whiteSpace=wrap;html=1;" vertex="1" parent="WIyWlLk6GJQsqaUBKTNV-1">
          <mxGeometry x="350" y="147.5" width="120" height="105" as="geometry" />
        </mxCell>
        <mxCell id="n35DV_EB8kSFTlXDGDIX-37" style="edgeStyle=orthogonalEdgeStyle;rounded=0;orthogonalLoop=1;jettySize=auto;html=1;entryX=0.5;entryY=0;entryDx=0;entryDy=0;" edge="1" parent="WIyWlLk6GJQsqaUBKTNV-1" source="n35DV_EB8kSFTlXDGDIX-10" target="n35DV_EB8kSFTlXDGDIX-19">
          <mxGeometry relative="1" as="geometry" />
        </mxCell>
        <mxCell id="n35DV_EB8kSFTlXDGDIX-38" style="edgeStyle=orthogonalEdgeStyle;rounded=0;orthogonalLoop=1;jettySize=auto;html=1;" edge="1" parent="WIyWlLk6GJQsqaUBKTNV-1" source="n35DV_EB8kSFTlXDGDIX-10" target="n35DV_EB8kSFTlXDGDIX-30">
          <mxGeometry relative="1" as="geometry" />
        </mxCell>
        <mxCell id="n35DV_EB8kSFTlXDGDIX-10" value="Личный Кабинет" style="rounded=0;whiteSpace=wrap;html=1;" vertex="1" parent="WIyWlLk6GJQsqaUBKTNV-1">
          <mxGeometry x="560" y="170" width="120" height="60" as="geometry" />
        </mxCell>
        <mxCell id="n35DV_EB8kSFTlXDGDIX-75" style="edgeStyle=orthogonalEdgeStyle;rounded=0;orthogonalLoop=1;jettySize=auto;html=1;entryX=0.5;entryY=0;entryDx=0;entryDy=0;" edge="1" parent="WIyWlLk6GJQsqaUBKTNV-1" source="n35DV_EB8kSFTlXDGDIX-19" target="n35DV_EB8kSFTlXDGDIX-74">
          <mxGeometry relative="1" as="geometry" />
        </mxCell>
        <mxCell id="n35DV_EB8kSFTlXDGDIX-19" value="Добавить/Удалить вакансию" style="rounded=1;whiteSpace=wrap;html=1;" vertex="1" parent="WIyWlLk6GJQsqaUBKTNV-1">
          <mxGeometry x="440" y="330" width="120" height="60" as="geometry" />
        </mxCell>
        <mxCell id="n35DV_EB8kSFTlXDGDIX-28" value="" style="endArrow=classic;html=1;rounded=0;exitX=0.5;exitY=1;exitDx=0;exitDy=0;entryX=0;entryY=0.5;entryDx=0;entryDy=0;" edge="1" parent="WIyWlLk6GJQsqaUBKTNV-1" source="n35DV_EB8kSFTlXDGDIX-3" target="n35DV_EB8kSFTlXDGDIX-1">
          <mxGeometry width="50" height="50" relative="1" as="geometry">
            <mxPoint x="400" y="310" as="sourcePoint" />
            <mxPoint x="410" y="330" as="targetPoint" />
            <Array as="points">
              <mxPoint x="410" y="280" />
              <mxPoint x="120" y="280" />
              <mxPoint x="120" y="200" />
            </Array>
          </mxGeometry>
        </mxCell>
        <mxCell id="n35DV_EB8kSFTlXDGDIX-29" value="Нет" style="edgeLabel;html=1;align=center;verticalAlign=middle;resizable=0;points=[];" vertex="1" connectable="0" parent="n35DV_EB8kSFTlXDGDIX-28">
          <mxGeometry x="-0.9535" y="1" relative="1" as="geometry">
            <mxPoint as="offset" />
          </mxGeometry>
        </mxCell>
        <mxCell id="n35DV_EB8kSFTlXDGDIX-62" style="edgeStyle=orthogonalEdgeStyle;rounded=0;orthogonalLoop=1;jettySize=auto;html=1;entryX=0.5;entryY=0;entryDx=0;entryDy=0;" edge="1" parent="WIyWlLk6GJQsqaUBKTNV-1" source="n35DV_EB8kSFTlXDGDIX-30" target="n35DV_EB8kSFTlXDGDIX-61">
          <mxGeometry relative="1" as="geometry" />
        </mxCell>
        <mxCell id="n35DV_EB8kSFTlXDGDIX-30" value="Посмотреть поданные резюме" style="rounded=1;whiteSpace=wrap;html=1;" vertex="1" parent="WIyWlLk6GJQsqaUBKTNV-1">
          <mxGeometry x="680" y="330" width="120" height="60" as="geometry" />
        </mxCell>
        <mxCell id="n35DV_EB8kSFTlXDGDIX-39" value="Конец" style="rounded=1;whiteSpace=wrap;html=1;" vertex="1" parent="WIyWlLk6GJQsqaUBKTNV-1">
          <mxGeometry x="685" y="740" width="110" height="50" as="geometry" />
        </mxCell>
        <mxCell id="n35DV_EB8kSFTlXDGDIX-55" style="edgeStyle=orthogonalEdgeStyle;rounded=0;orthogonalLoop=1;jettySize=auto;html=1;entryX=0.5;entryY=0;entryDx=0;entryDy=0;" edge="1" parent="WIyWlLk6GJQsqaUBKTNV-1" source="n35DV_EB8kSFTlXDGDIX-46" target="n35DV_EB8kSFTlXDGDIX-39">
          <mxGeometry relative="1" as="geometry" />
        </mxCell>
        <mxCell id="n35DV_EB8kSFTlXDGDIX-58" value="Нет" style="edgeLabel;html=1;align=center;verticalAlign=middle;resizable=0;points=[];" vertex="1" connectable="0" parent="n35DV_EB8kSFTlXDGDIX-55">
          <mxGeometry x="-0.5225" y="-1" relative="1" as="geometry">
            <mxPoint as="offset" />
          </mxGeometry>
        </mxCell>
        <mxCell id="n35DV_EB8kSFTlXDGDIX-60" value="" style="edgeStyle=orthogonalEdgeStyle;rounded=0;orthogonalLoop=1;jettySize=auto;html=1;" edge="1" parent="WIyWlLk6GJQsqaUBKTNV-1" source="n35DV_EB8kSFTlXDGDIX-46" target="n35DV_EB8kSFTlXDGDIX-59">
          <mxGeometry relative="1" as="geometry" />
        </mxCell>
        <mxCell id="n35DV_EB8kSFTlXDGDIX-68" value="Да" style="edgeLabel;html=1;align=center;verticalAlign=middle;resizable=0;points=[];" vertex="1" connectable="0" parent="n35DV_EB8kSFTlXDGDIX-60">
          <mxGeometry x="-0.0743" y="2" relative="1" as="geometry">
            <mxPoint as="offset" />
          </mxGeometry>
        </mxCell>
        <mxCell id="n35DV_EB8kSFTlXDGDIX-46" value="Ответить на резюме?" style="rhombus;whiteSpace=wrap;html=1;" vertex="1" parent="WIyWlLk6GJQsqaUBKTNV-1">
          <mxGeometry x="690" y="510" width="100" height="90" as="geometry" />
        </mxCell>
        <mxCell id="n35DV_EB8kSFTlXDGDIX-59" value="Написать пользователю&amp;nbsp;" style="whiteSpace=wrap;html=1;" vertex="1" parent="WIyWlLk6GJQsqaUBKTNV-1">
          <mxGeometry x="520" y="525" width="120" height="60" as="geometry" />
        </mxCell>
        <mxCell id="n35DV_EB8kSFTlXDGDIX-65" style="edgeStyle=orthogonalEdgeStyle;rounded=0;orthogonalLoop=1;jettySize=auto;html=1;entryX=0.5;entryY=0;entryDx=0;entryDy=0;" edge="1" parent="WIyWlLk6GJQsqaUBKTNV-1" source="n35DV_EB8kSFTlXDGDIX-61" target="n35DV_EB8kSFTlXDGDIX-46">
          <mxGeometry relative="1" as="geometry" />
        </mxCell>
        <mxCell id="n35DV_EB8kSFTlXDGDIX-61" value="Отфильтровать по нужным критериям" style="rounded=0;whiteSpace=wrap;html=1;" vertex="1" parent="WIyWlLk6GJQsqaUBKTNV-1">
          <mxGeometry x="680" y="420" width="120" height="60" as="geometry" />
        </mxCell>
        <mxCell id="n35DV_EB8kSFTlXDGDIX-73" value="" style="endArrow=none;html=1;rounded=0;entryX=0.5;entryY=1;entryDx=0;entryDy=0;" edge="1" parent="WIyWlLk6GJQsqaUBKTNV-1" target="n35DV_EB8kSFTlXDGDIX-59">
          <mxGeometry width="50" height="50" relative="1" as="geometry">
            <mxPoint x="740" y="680" as="sourcePoint" />
            <mxPoint x="590" y="610" as="targetPoint" />
            <Array as="points">
              <mxPoint x="580" y="680" />
            </Array>
          </mxGeometry>
        </mxCell>
        <mxCell id="n35DV_EB8kSFTlXDGDIX-74" value="Изменить данные о вакансиях в БД" style="rounded=0;whiteSpace=wrap;html=1;" vertex="1" parent="WIyWlLk6GJQsqaUBKTNV-1">
          <mxGeometry x="440" y="430" width="120" height="60" as="geometry" />
        </mxCell>
        <mxCell id="n35DV_EB8kSFTlXDGDIX-77" value="" style="endArrow=none;html=1;rounded=0;entryX=0.5;entryY=1;entryDx=0;entryDy=0;" edge="1" parent="WIyWlLk6GJQsqaUBKTNV-1" target="n35DV_EB8kSFTlXDGDIX-74">
          <mxGeometry width="50" height="50" relative="1" as="geometry">
            <mxPoint x="590" y="680" as="sourcePoint" />
            <mxPoint x="500" y="510" as="targetPoint" />
            <Array as="points">
              <mxPoint x="500" y="680" />
            </Array>
          </mxGeometry>
        </mxCell>
      </root>
    </mxGraphModel>
  </diagram>
</mxfile>
